<?xml version="1.0" encoding="UTF-8"?>
<svg width="44px" height="44px" viewBox="0 0 44 44" version="1.1" xmlns="http://www.w3.org/2000/svg" xmlns:xlink="http://www.w3.org/1999/xlink">
    <!-- Generator: sketchtool 59.1 (101010) - https://sketch.com -->
    <title>217A3B3B-A064-43FB-84F5-13D2A11D72F1</title>
    <desc>Created with sketchtool.</desc>
    <g id="Landing-Page" stroke="none" stroke-width="1" fill="none" fill-rule="evenodd">
        <g id="Home-Page" transform="translate(-541.000000, -1888.000000)">
            <g id="Services" transform="translate(108.000000, 1595.000000)">
                <g id="Proud-Moments-Copy-3" transform="translate(416.000000, 258.000000)">
                    <g id="Icon/Plumbing/House" transform="translate(16.000000, 32.000000)">
                        <g id="036-wrench" transform="translate(0.400000, 1.200000)">
                            <path d="M2.71078561,43.7308811 C4.43246528,45.4525607 7.22413194,45.4525607 8.94613711,43.7308811 L11.5447699,41.1332248 L5.30844186,34.8968967 L2.71078561,37.4955296 C0.989105944,39.2175347 0.989105944,42.0088759 2.71078561,43.7308811 Z M4.78891061,39.5736546 C5.36312936,38.9997613 6.29346786,39.0000868 6.86736111,39.5739801 C7.44125436,40.1481988 7.44125436,41.0788629 6.86703561,41.6527561 C6.29314236,42.2263238 5.36280378,42.2263238 4.78891061,41.6527561 C4.21501736,41.0788629 4.21469186,40.1481988 4.78858511,39.5739801 C4.78858511,39.5739801 4.78891061,39.5739801 4.78891061,39.5736546 Z" id="Shape" fill="#5AAAE7" fill-rule="nonzero"></path>
                            <path d="M6.86801211,41.6527561 C7.44190536,41.0785373 7.44157986,40.1481988 6.86768661,39.5743056 C6.29346786,39.0004123 5.36280378,39.0004123 4.78891061,39.5746311 C4.21534286,40.1485243 4.21534286,41.0788629 4.78891061,41.6527561 C5.36280378,42.2266493 6.29346786,42.2269748 6.86768661,41.6530816 C6.86768661,41.6530816 6.86768661,41.6527561 6.86801211,41.6527561 Z" id="Path" fill="#1A6FB0" fill-rule="nonzero"></path>
                            <path d="M29.2856554,2.35555556 C24.8820095,3.91252172 21.9376736,8.07593314 21.9370226,12.7465061 L29.2856554,12.7465061 L29.2856554,2.35555556 Z" id="Path" fill="#1A6FB0" fill-rule="nonzero"></path>
                            <path d="M28.9331163,23.0052951 C29.1095486,23.0788629 29.2931424,23.1377821 29.4695746,23.2038629 C35.2452908,25.127691 41.4874783,22.0052951 43.4113064,16.229579 C45.3097439,10.5310113 42.2963976,4.36141489 36.6346137,2.35555556 L36.6346137,12.7465061 L21.9370214,12.7465061 C21.9363715,14.1250868 22.1958116,15.4912977 22.7013454,16.7738498 C22.7674262,16.9499566 22.8409939,17.1263889 22.9145616,17.2953342 C24.108572,19.9040581 26.2651476,21.9502821 28.9331163,23.0052951 Z" id="Path" fill="#78B9EB" fill-rule="nonzero"></path>
                            <path d="M5.30876736,34.8975477 L11.5441189,41.1332248 L5.30876736,34.8975477 Z" id="Path" fill="#78B9EB" fill-rule="nonzero"></path>
                            <path d="M22.9145616,17.2953342 L5.30713978,34.8955946 L8.42432728,38.0137587 L25.5525824,20.8890842 C24.4389757,19.8822482 23.5411893,18.6595921 22.9145616,17.2953342 Z" id="Path" fill="#1A6FB0" fill-rule="nonzero"></path>
                            <path d="M28.9331163,23.0052951 C27.6873481,22.5105035 26.5421658,21.7933811 25.5525824,20.8890842 L8.43018661,38.0150607 L11.5483507,41.1325738 L29.4718533,23.2015842 C29.2931424,23.1377821 29.1095486,23.0788629 28.9331163,23.0052951 Z" id="Path" fill="#1E81CE" fill-rule="nonzero"></path>
                            <path d="M32.9601345,19.3604384 C32.5542101,19.3604384 32.225434,19.0313368 32.225434,18.6254123 L32.225434,15.6859592 C32.225434,15.2803602 32.5542101,14.9512587 32.9601345,14.9512587 C33.366059,14.9512587 33.6951606,15.2803602 33.6951606,15.6859592 L33.6951606,18.6254123 C33.6951606,19.0313368 33.366059,19.3604384 32.9601345,19.3604384 Z" id="Path" fill="#1A6FB0" fill-rule="nonzero"></path>
                            <path d="M35.1648871,19.3604384 C34.7589627,19.3604384 34.4298611,19.0313368 34.4298611,18.6254123 L34.4298611,15.6859592 C34.4298611,15.2803602 34.7589627,14.9512587 35.1648871,14.9512587 C35.5708116,14.9512587 35.8995877,15.2803602 35.8995877,15.6859592 L35.8995877,18.6254123 C35.8995877,19.0313368 35.5708116,19.3604384 35.1648871,19.3604384 Z" id="Path" fill="#1A6FB0" fill-rule="nonzero"></path>
                            <path d="M37.3693143,19.3604384 C36.9637153,19.3604384 36.6346137,19.0313368 36.6346137,18.6254123 L36.6346137,15.6859592 C36.6346137,15.2803602 36.9637153,14.9512587 37.3693143,14.9512587 C37.7752387,14.9512587 38.1043403,15.2803602 38.1043403,15.6859592 L38.1043403,18.6254123 C38.1043403,19.0313368 37.7752387,19.3604384 37.3693143,19.3604384 Z" id="Path" fill="#1A6FB0" fill-rule="nonzero"></path>
                            <path d="M30.7557074,19.3604384 C30.3497829,19.3604384 30.0206814,19.0313368 30.0206814,18.6254123 L30.0206814,15.6859592 C30.0206814,15.2803602 30.3497829,14.9512587 30.7557074,14.9512587 C31.1613064,14.9512587 31.4904079,15.2803602 31.4904079,15.6859592 L31.4904079,18.6254123 C31.4904079,19.0313368 31.1613064,19.3604384 30.7557074,19.3604384 Z" id="Path" fill="#1A6FB0" fill-rule="nonzero"></path>
                            <path d="M28.5509549,19.3604384 C28.1450304,19.3604384 27.8162544,19.0313368 27.8162544,18.6254123 L27.8162544,15.6859592 C27.8162544,15.2803602 28.1450304,14.9512587 28.5509549,14.9512587 C28.9568794,14.9512587 29.2859809,15.2803602 29.2859809,15.6859592 L29.2859809,18.6254123 C29.2856554,19.0313368 28.9568794,19.3604384 28.5509549,19.3604384 Z" id="Path" fill="#1A6FB0" fill-rule="nonzero"></path>
                            <path d="M42.2666667,24.9149088 C42.2666667,34.0796766 32.9951611,43.2444444 22.7111111,43.2444444" id="Path-2" stroke="#1A6FB0" stroke-width="4.44444444" stroke-linecap="round"></path>
                            <path d="M21.3910325,6.27078547 C21.3910325,15.4355533 12.1195269,24.6003211 1.83547692,24.6003211" id="Path-2" stroke="#78B9EB" stroke-width="4.44444444" stroke-linecap="round" transform="translate(11.613255, 15.435553) rotate(-190.000000) translate(-11.613255, -15.435553) "></path>
                            <path d="M20.5086601,42.4032437 L22.7262238,40.797886 C23.223294,40.4380427 23.9179597,40.5492871 24.277803,41.0463573 C24.4150163,41.2358971 24.4888889,41.4639179 24.4888889,41.6979112 L24.4888889,44.6546628 C24.4888889,45.2683126 23.9914275,45.7657739 23.3777778,45.7657739 C23.1737973,45.7657739 22.973753,45.7096225 22.7995681,45.6034734 L20.5820044,44.2520794 C20.0579908,43.932743 19.8920671,43.2490728 20.2114035,42.7250592 C20.2881497,42.5991229 20.3891991,42.4897249 20.5086601,42.4032437 Z" id="Path-3" fill="#1A6FB0"></path>
                            <path d="M19.0499131,3.88344189 L21.2674768,2.27808421 C21.764547,1.91824091 22.4592127,2.02948528 22.819056,2.52655548 C22.9562693,2.71609536 23.0301419,2.94411611 23.0301419,3.17810941 L23.0301419,6.13486104 C23.0301419,6.74851076 22.5326805,7.24597215 21.9190308,7.24597215 C21.7150503,7.24597215 21.515006,7.18982074 21.3408211,7.08367159 L19.1232573,5.73227764 C18.5992438,5.41294124 18.4333201,4.729271 18.7526565,4.2052574 C18.8294027,4.07932106 18.9304521,3.96992313 19.0499131,3.88344189 Z" id="Path-3" fill="#78B9EB" transform="translate(20.363475, 4.557596) rotate(-200.000000) translate(-20.363475, -4.557596) "></path>
                        </g>
                    </g>
                </g>
            </g>
        </g>
    </g>
</svg>