<?xml version="1.0" encoding="UTF-8"?>
<svg width="37px" height="48px" viewBox="0 0 37 48" version="1.1" xmlns="http://www.w3.org/2000/svg" xmlns:xlink="http://www.w3.org/1999/xlink">
    <!-- Generator: sketchtool 59.1 (101010) - https://sketch.com -->
    <title>0A8674F8-34F7-407D-A2EF-DD6F3402148F</title>
    <desc>Created with sketchtool.</desc>
    <g id="Landing-Page" stroke="none" stroke-width="1" fill="none" fill-rule="evenodd">
        <g id="Home-Page" transform="translate(-962.000000, -1717.000000)" fill-rule="nonzero">
            <g id="Services" transform="translate(108.000000, 1595.000000)">
                <g id="Proud-Moments-Copy-4" transform="translate(832.000000, 90.000000)">
                    <g id="Icon/Plumbing/House" transform="translate(16.000000, 32.000000)">
                        <g id="023-plumber" transform="translate(6.000000, 0.000000)">
                            <path d="M16.2593994,23.1723633 L20.248169,23.1723633 C20.6905518,23.1719971 21.1314697,23.1247558 21.5639648,23.0317383 C21.8470459,22.9742432 22.1239013,22.8911133 22.3916016,22.7834473 C24.8778076,21.8913574 26.5341797,19.5325927 26.5294292,16.8911133 L26.5294292,11.2884521 C26.4378662,11.2880859 26.3466797,11.2800293 26.2565917,11.2635498 L18.7998047,10.0220947 C18.4379883,9.96423337 18.0692138,9.96423337 17.7073974,10.0220947 L10.2509766,11.2635498 C10.1608886,11.2800293 10.0693359,11.2880859 9.97777302,11.2884521 L9.97777302,16.8911133 C9.97302244,19.5322266 11.6297607,21.8913574 14.1156006,22.7834473 C14.383667,22.8911133 14.6605224,22.9742432 14.9432373,23.0317383 C15.3757324,23.1247558 15.8170166,23.1719971 16.2593994,23.1723633 Z" id="Path" fill="#F1D4BA"></path>
                            <path d="M26.529419,17.3792724 L27.3570557,17.3792724 C28.7285156,17.3792724 29.8399658,16.2678223 29.8399658,14.8967286 C29.8399658,13.5252685 28.7285156,12.4138183 27.3570557,12.4138183 L26.529419,12.4138183 L26.529419,17.3792724 Z" id="Path" fill="#EEC9A9"></path>
                            <path d="M9.15014644,12.4138183 C7.77905269,12.4138183 6.66760256,13.5252685 6.66760256,14.8967286 C6.66760256,16.2678223 7.77905269,17.3792724 9.15014644,17.3792724 L9.97778325,17.3792724 L9.97778325,12.4138183 L9.15014644,12.4138183 Z" id="Path" fill="#EEC9A9"></path>
                            <path d="M17.4261474,31.4483643 L19.0814209,31.4483643 C20.9095459,31.4483643 22.3916016,29.9663086 22.3916016,28.1378174 L22.3916016,22.7834473 C22.1239013,22.8911133 21.8470459,22.9742432 21.5639648,23.0317383 C21.1314698,23.1247558 20.6905518,23.1719971 20.248169,23.1723633 L16.2593994,23.1723633 C15.8170166,23.1719971 15.3757324,23.1247558 14.9432373,23.0317383 C14.6605224,22.9742432 14.383667,22.8911133 14.1156006,22.7834473 L14.1156006,28.1378174 C14.1156006,29.9663086 15.5980224,31.4483643 17.4261474,31.4483643 Z" id="Path" fill="#EEC9A9"></path>
                            <path d="M11.6612549,6.06555178 C11.9468994,2.63671875 14.8132324,-0.000366210937 18.2537842,-6.65902803e-06 L14.9432373,-6.65902803e-06 C11.291748,-0.00512695312 8.32763672,2.95092769 8.32250981,6.60241697 C8.32250981,6.60864262 8.32250981,6.614502 8.32250981,6.62072756 L11.6579589,6.06628416 L11.6612549,6.06555178 Z" id="Path" fill="#1E81CE"></path>
                            <path d="M18.2537842,5.01269531 C18.4365234,5.0130615 18.6192627,5.02770994 18.7998047,5.05664062 L24.8463135,6.06445312 C24.5595703,2.63635256 21.6936036,0 18.2537842,0 L18.2537842,5.01269531 Z" id="Path" fill="#1E81CE"></path>
                            <path d="M11.6612549,6.06555178 L17.7073974,5.05664063 C17.8879395,5.02770994 18.0706787,5.0130615 18.2537842,5.01269531 L18.2537842,0 C14.8132324,-0.000366210938 11.9468994,2.63671875 11.6612549,6.06555178 Z" id="Path" fill="#3D9AE2"></path>
                            <path d="M24.8463135,6.06445312 L28.1846924,6.62072756 C28.1846924,2.96411137 25.220581,0 21.5639648,0 L18.2537842,0 C21.6936036,0 24.5595703,2.63635256 24.8463135,6.06445312 Z" id="Path" fill="#3D9AE2"></path>
                            <path d="M24.8463135,6.06445312 C24.8620605,6.24829106 24.8745117,6.43286137 24.8745117,6.62072756 C24.8745117,6.43286137 24.8620605,6.24829106 24.8463135,6.06445312 L18.7998047,5.05664062 C18.6192627,5.02770994 18.4365234,5.0130615 18.2537842,5.01269531 C18.0706787,5.0130615 17.8879395,5.02770994 17.7073974,5.05664062 L11.6612549,6.06555178 C11.6455078,6.24902344 11.6330567,6.43359375 11.6330567,6.62072756 C11.6330567,6.43359375 11.6455078,6.24902344 11.6612549,6.06555178 L8.32250981,6.62072756 L8.32250981,9.63317869 C8.3254395,10.5461426 9.06481931,11.2855224 9.97778325,11.2884521 C10.0693359,11.2880859 10.1608886,11.2800293 10.2509766,11.2635498 L17.7073974,10.0220948 C18.0692138,9.96423338 18.4379883,9.96423338 18.7998047,10.0220948 L26.2565918,11.2635498 C26.3466797,11.2800293 26.4378662,11.2880859 26.529419,11.2884521 C27.442749,11.2855224 28.1821289,10.5461426 28.1846924,9.63317869 L28.1846924,6.62072756 L24.8463135,6.06445312 Z" id="Path" fill="#1A6FB0"></path>
                            <path d="M24.8745117,26.482544 L22.3916016,26.482544 L22.3916016,28.1378174 C22.3916016,29.9663086 20.9095459,31.4483643 19.0814209,31.4483643 L18.2537842,31.4483643 L18.2537842,48 L36.4606933,48 L36.4606933,38.0687256 C36.4606933,31.6699219 31.2733154,26.482544 24.8745117,26.482544 Z" id="Path" fill="#78B9EB"></path>
                            <path d="M17.4261474,31.4483643 C15.5980224,31.4483643 14.1156006,29.9663086 14.1156006,28.1378174 L14.1156006,26.482544 L11.6330567,26.482544 C5.23425291,26.482544 0.046875,31.6699219 0.046875,38.0687256 L0.046875,48 L18.2537842,48 L18.2537842,31.4483643 L17.4261474,31.4483643 Z" id="Path" fill="#5AAAE7"></path>
                            <polygon id="Path" fill="#1A6FB0" points="28.1846924 36.4138183 29.8399658 36.4138183 29.8399658 48 28.1846924 48"></polygon>
                            <polygon id="Path" fill="#1A6FB0" points="6.66760256 36.4138183 8.32250981 36.4138183 8.32250981 48 6.66760256 48"></polygon>
                        </g>
                    </g>
                </g>
            </g>
        </g>
    </g>
</svg>