<?xml version="1.0" encoding="UTF-8"?>
<svg width="40px" height="40px" viewBox="0 0 40 40" version="1.1" xmlns="http://www.w3.org/2000/svg" xmlns:xlink="http://www.w3.org/1999/xlink">
    <!-- Generator: sketchtool 59.1 (101010) - https://sketch.com -->
    <title>3116F0D2-1A39-494B-9922-B0AB2001265A</title>
    <desc>Created with sketchtool.</desc>
    <g id="Landing-Page" stroke="none" stroke-width="1" fill="none" fill-rule="evenodd">
        <g id="Home-Page" transform="translate(-128.000000, -1715.000000)" fill-rule="nonzero">
            <g id="Services" transform="translate(108.000000, 1595.000000)">
                <g id="Proud-Moments" transform="translate(0.000000, 84.000000)">
                    <g id="Icon/Plumbing/House" transform="translate(16.000000, 32.000000)">
                        <g id="008-house" transform="translate(4.000000, 4.000000)">
                            <path d="M13.1033325,28.9654541 C13.1033325,32.774353 16.1911011,35.8621216 20,35.8621216 C23.8088989,35.8621216 26.8966675,32.774353 26.8966675,28.9654541 C26.8966675,25.1565552 20,15.1724243 20,15.1724243 C20,15.1724243 13.1033325,25.1565552 13.1033325,28.9654541 Z M24.1378784,28.9654541 C24.1357422,31.25 22.2842407,33.1011963 20,33.1033325 C22.2842407,33.1011963 24.1357422,31.25 24.1378784,28.9654541 Z" id="Shape" fill="#2488FF"></path>
                            <path d="M33.1033325,12.6483155 L27.5863648,7.32421875 L20,0 L20,15.1724243 C20,15.1724243 26.8966675,25.1565552 26.8966675,28.9654541 C26.8966675,32.774353 23.8088989,35.8621216 20,35.8621216 L20,40 L36.5518188,40 L36.5518188,19.3103027 L40,19.3103027 L33.1033325,12.6483155 Z" id="Path" fill="#78B9EB"></path>
                            <path d="M13.1033325,28.9654541 C13.1033325,25.1565552 20,15.1724243 20,15.1724243 L20,0 L0,19.3103027 L3.44818117,19.3103027 L3.44818117,40 L20,40 L20,35.8621216 C16.1911011,35.8621216 13.1033325,32.774353 13.1033325,28.9654541 Z" id="Path" fill="#5AAAE7"></path>
                            <polygon id="Path" fill="#005ECE" points="27.5863648 4.13787844 27.5863648 7.32421875 30.3448486 9.98626711 30.3448486 4.13787844"></polygon>
                            <polygon id="Path" fill="#006DF0" points="33.1033325 4.13787844 30.3448486 4.13787844 30.3448486 9.98626711 33.1033325 12.6483155"></polygon>
                            <path d="M20,33.7930298 L20,32.4139405 C21.9033813,32.4114991 23.4460449,30.8691406 23.4481812,28.9654541 L24.8275757,28.9654541 C24.8245239,31.6305542 22.6647949,33.789978 20,33.7930298 Z" id="Path" fill="#006DF0"></path>
                        </g>
                    </g>
                </g>
            </g>
        </g>
    </g>
</svg>