<?xml version="1.0" encoding="UTF-8"?>
<svg width="48px" height="35px" viewBox="0 0 48 35" version="1.1" xmlns="http://www.w3.org/2000/svg" xmlns:xlink="http://www.w3.org/1999/xlink">
    <!-- Generator: sketchtool 59.1 (101010) - https://sketch.com -->
    <title>B2A49747-8FE3-453A-B074-B4AD64E765CA</title>
    <desc>Created with sketchtool.</desc>
    <g id="Landing-Page" stroke="none" stroke-width="1" fill="none" fill-rule="evenodd">
        <g id="Home-Page" transform="translate(-540.000000, -1723.000000)" fill-rule="nonzero">
            <g id="Services" transform="translate(108.000000, 1595.000000)">
                <g id="Proud-Moments-Copy-2" transform="translate(416.000000, 90.000000)">
                    <g id="Icon/Plumbing/House" transform="translate(16.000000, 32.000000)">
                        <g id="024-plumber-1" transform="translate(0.000000, 6.000000)">
                            <path d="M37.5999756,4.00012209 C42.9019776,4.00012209 47.1998291,8.29797366 47.1998291,13.5999756 C47.1998291,8.29797366 42.9019776,4.00012209 37.5999756,4.00012209 Z" id="Path" fill="#78B9EB"></path>
                            <path d="M38.4001464,23.1998291 C35.7491455,23.1998291 33.5998536,25.3491211 33.5998536,28.0001221 C33.5998536,30.651123 35.7491455,32.8000489 38.4001464,32.8000489 C41.0511474,32.8000489 43.2000732,30.651123 43.2000732,28.0001221 C43.2000732,25.3491211 41.0511474,23.1998291 38.4001464,23.1998291 Z M38.4001464,30.3999023 C37.0744629,30.3999023 36,29.3254395 36,28.0001221 C36,26.6744385 37.0744629,25.5999756 38.4001464,25.5999756 C39.7254638,25.5999756 40.7999268,26.6744385 40.7999268,28.0001221 C40.7999268,29.3254395 39.7254638,30.3999023 38.4001464,30.3999023 Z" id="Shape" fill="#58595B"></path>
                            <path d="M37.5999756,4.00012209 L34.4000244,4.00012209 L34.4000244,15.1999511 C34.4000244,16.9672852 35.8326416,18.3999023 37.5999756,18.3999023 L47.1998291,18.3999023 L47.1998291,13.5999756 C47.1998291,8.29797366 42.9019776,4.00012209 37.5999756,4.00012209 Z" id="Path" fill="#E6E7E8"></path>
                            <path d="M40.7999268,28.0001221 C40.7999268,29.3254395 39.7254638,30.3999023 38.4001464,30.3999023 C37.0744629,30.3999023 36,29.3254395 36,28.0001221 C36,26.6744385 37.0744629,25.5999756 38.4001464,25.5999756 C39.7254638,25.5999756 40.7999268,26.6744385 40.7999268,28.0001221 Z" id="Path" fill="#ACABB1"></path>
                            <path d="M13.5999756,28.0001221 C13.5999756,29.3254395 12.5255127,30.3999023 11.1998291,30.3999023 C9.87451172,30.3999023 8.80004887,29.3254395 8.80004887,28.0001221 C8.80004887,26.6744385 9.87451172,25.5999756 11.1998291,25.5999756 C12.5255127,25.5999756 13.5999756,26.6744385 13.5999756,28.0001221 Z" id="Path" fill="#ACABB1"></path>
                            <path d="M29.6000977,13.5999756 L29.6000977,28.0001221 L16.0001221,28.0001221 C16.0001221,25.3491211 13.8508301,23.1998291 11.1998291,23.1998291 C8.55175781,23.2064209 6.40649419,25.3516846 6.39990234,28.0001221 L2.40014644,28.0001221 C1.51757812,27.9975586 0.802734375,27.2827148 0.800170875,26.4001464 L0.800170875,13.5999756 L29.6000977,13.5999756 Z" id="Path" fill="#FFAF46"></path>
                            <path d="M28.0001221,0 L2.40014644,0 C1.51647947,0 0.800170875,0.716308594 0.800170875,1.59997556 L0.800170875,13.5999756 L13.5999756,13.5999756 L18.5943604,8.60559084 C17.6572266,7.66809084 17.6575928,6.14868169 18.5950928,5.21154787 C19.0447998,4.76184084 19.6549073,4.50878906 20.2913818,4.50878906 C18.9656982,4.50878906 17.8912354,5.583252 17.8912354,6.9089355 C17.8912354,8.23425291 18.9656982,9.30871584 20.2913818,9.30871584 C21.6166992,9.30871584 22.6911621,8.23425291 22.6911621,6.9089355 C22.6907959,8.23425291 21.616333,9.30871584 20.2906494,9.30834956 C19.6545411,9.30798337 19.0444336,9.05529787 18.5943604,8.60559084 L13.5999756,13.5999756 L29.6000977,13.5999756 L29.6000977,1.59997556 C29.6000977,0.716308594 28.8837891,0 28.0001221,0 Z" id="Path" fill="#FFBF6B"></path>
                            <path d="M20.2913818,10.1088867 C18.5240479,10.1088867 17.0910645,8.67626953 17.0910645,6.9089355 C17.0910645,5.14160156 18.5240479,3.70861819 20.2913818,3.70861819 C20.7330323,3.70861819 21.0911865,4.06677244 21.0911865,4.50878906 C21.0911865,4.9504395 20.7330323,5.30895994 20.2913818,5.30895994 C19.4077148,5.30895994 18.6914063,6.02526853 18.6914063,6.9089355 C18.6914063,7.79260256 19.4077148,8.50891116 20.2913818,8.50891116 C21.1750489,8.50891116 21.8913574,7.79260256 21.8913574,6.9089355 C21.8913574,6.46691897 22.2495117,6.10876463 22.6911621,6.10876463 C23.1331787,6.10876463 23.491333,6.46691897 23.491333,6.9089355 C23.491333,8.67626953 22.0583496,10.1088867 20.2913818,10.1088867 Z" id="Path" fill="#AB2300"></path>
                            <path d="M10.1088867,20.2913818 C9.66687009,20.2913818 9.30871584,19.9332276 9.30871584,19.4912109 C9.30871584,19.0495605 9.66687009,18.6910401 10.1088867,18.6910401 C10.9925537,18.6910401 11.7088623,17.9747315 11.7088623,17.0910645 C11.7088623,16.2073974 10.9925537,15.4910888 10.1088867,15.4910888 C9.22521975,15.4910888 8.50891116,16.2073974 8.50891116,17.0910645 C8.50891116,17.533081 8.15075681,17.8912354 7.70874019,17.8912354 C7.26708984,17.8912354 6.90856931,17.533081 6.90856931,17.0910645 C6.90856931,15.3237305 8.34155269,13.8911133 10.1088867,13.8911133 C11.8762207,13.8911133 13.3088379,15.3237305 13.3088379,17.0910645 C13.3088379,18.8583984 11.8762207,20.2913818 10.1088867,20.2913818 Z" id="Path" fill="#AB2300"></path>
                            <path d="M11.805542,16.1934862 C11.3638916,16.1934862 11.0057373,15.8353271 11.0057373,15.3933105 C11.0057373,15.1812744 11.0899658,14.9780273 11.2401123,14.8278808 L18.0289307,8.04089353 C18.3358154,7.72302244 18.8422852,7.71423338 19.1601562,8.02111819 C19.4776612,8.32800291 19.4864502,8.83447266 19.1795654,9.15234375 C19.1733398,9.1589355 19.166748,9.16552734 19.1601562,9.17211919 L12.3713379,15.9591065 C12.2215576,16.1096192 12.0179443,16.1942138 11.805542,16.1934862 Z" id="Path" fill="#AB2300"></path>
                            <path d="M10.4000244,24.7998047 C10.4000244,25.2418213 10.0418701,25.5999756 9.59985356,25.5999756 L0.800170875,25.5999756 L0.800170875,24 L9.59985356,24 C10.0418701,24 10.4000244,24.3581543 10.4000244,24.7998047 Z" id="Path" fill="#A7A9AC"></path>
                            <path d="M37.5999756,18.3999023 C35.8326416,18.3999023 34.4000244,16.9672852 34.4000244,15.1999511 L34.4000244,4.00012209 L29.6000977,4.00012209 L29.6000977,24 C30.041748,24 30.3999023,24.3581543 30.3999023,24.8001709 C30.3999023,25.2418213 30.041748,25.5999756 29.6000977,25.5999756 L29.6000977,28.0001221 L33.5998536,28.0001221 C33.5998536,25.3491211 35.7491455,23.2001953 38.4001464,23.2001953 C41.0511474,23.2001953 43.2000732,25.3491211 43.2000732,28.0001221 L47.1998291,28.0001221 L47.1998291,18.3999023 L37.5999756,18.3999023 Z" id="Path" fill="#939598"></path>
                            <path d="M29.6000977,24 L13.1744385,24 C12.7324219,24 12.3742676,24.3581543 12.3742676,24.8001709 C12.3742676,25.2418213 12.7324219,25.5999756 13.1744385,25.5999756 L29.6000977,25.5999756 L29.6000977,24 Z" id="Path" fill="#A7A9AC"></path>
                            <path d="M30.3999023,24.7998047 C30.3999023,24.3581543 30.041748,24 29.6000977,24 L29.6000977,25.5999756 C30.041748,25.5999756 30.3999023,25.2418213 30.3999023,24.7998047 Z" id="Path" fill="#939598"></path>
                            <path d="M47.1998291,34.4000244 L0.800170875,34.4000244 C0.35815425,34.4000244 0,34.0418701 0,33.5998536 C0,33.1582031 0.35815425,32.8000489 0.800170875,32.8000489 L47.2001953,32.8000489 C47.6418458,32.8000489 48,33.1582031 48,33.5998536 C48,34.0418701 47.6418458,34.4000244 47.1998291,34.4000244 Z" id="Path" fill="#6D6E71"></path>
                            <path d="M11.1998291,23.1998291 C8.54882812,23.1998291 6.39990234,25.3491211 6.39990234,28.0001221 C6.39990234,30.651123 8.54882812,32.8000489 11.1998291,32.8000489 C13.8508301,32.8000489 16.0001221,30.651123 16.0001221,28.0001221 C16.0001221,25.3491211 13.8508301,23.1998291 11.1998291,23.1998291 Z M11.1998291,30.3999023 C9.87451172,30.3999023 8.80004888,29.3254395 8.80004888,28.0001221 C8.80004888,26.6744385 9.87451172,25.5999756 11.1998291,25.5999756 C12.5255127,25.5999756 13.5999756,26.6744385 13.5999756,28.0001221 C13.5999756,29.3254395 12.5255127,30.3999023 11.1998291,30.3999023 Z" id="Shape" fill="#58595B"></path>
                        </g>
                    </g>
                </g>
            </g>
        </g>
    </g>
</svg>