<?xml version="1.0" encoding="UTF-8"?>
<svg width="48px" height="33px" viewBox="0 0 48 33" version="1.1" xmlns="http://www.w3.org/2000/svg" xmlns:xlink="http://www.w3.org/1999/xlink">
    <!-- Generator: sketchtool 59.1 (101010) - https://sketch.com -->
    <title>98C21D20-78A8-4251-8C67-2D128DC6A6AB</title>
    <desc>Created with sketchtool.</desc>
    <g id="Landing-Page" stroke="none" stroke-width="1" fill="none" fill-rule="evenodd">
        <g id="Home-Page" transform="translate(-956.000000, -1893.000000)" fill-rule="nonzero">
            <g id="Services" transform="translate(108.000000, 1595.000000)">
                <g id="Proud-Moments-Copy-5" transform="translate(832.000000, 258.000000)">
                    <g id="Icon/Plumbing/House" transform="translate(16.000000, 32.000000)">
                        <g id="034-valve" transform="translate(0.000000, 8.000000)">
                            <polygon id="Path" fill="#5AAAE7" points="21.5170898 6.62072756 26.482544 6.62072756 26.482544 9.93090825 21.5170898 9.93090825"></polygon>
                            <polygon id="Path" fill="#3D9AE2" points="28.9654541 6.62072756 28.9654541 3.31018069 19.0345459 3.31018069 19.0345459 6.62072756"></polygon>
                            <path d="M34.7585449,3.31018069 C35.6726074,3.31018069 36.4138183,2.56933594 36.4138183,1.65527344 C36.4138183,0.74084475 35.6726074,0 34.7585449,0 L13.2414551,0 C12.3273926,0 11.5861817,0.74084475 11.5861817,1.65527344 C11.5861817,2.56933594 12.3273926,3.31018069 13.2414551,3.31018069 L34.7585449,3.31018069 Z" id="Path" fill="#41769E"></path>
                            <path d="M11.5861817,15.723999 C10.6750489,15.730957 9.93786619,16.4677734 9.93090825,17.3792724 L9.93090825,30.6207276 C9.93090825,31.5347901 10.6721192,32.2756348 11.5861817,32.2756348 C12.5002442,32.2756348 13.2414551,31.5347901 13.2414551,30.6207276 L13.2414551,17.3792724 C13.2385254,16.4663086 12.4991455,15.7269287 11.5861817,15.723999 Z" id="Path" fill="#41769E"></path>
                            <path d="M32.276001,11.5861817 C32.2730713,10.6732178 31.5336914,9.93383794 30.6207276,9.93090825 L17.3792724,9.93090825 C16.4681396,9.93786619 15.730957,10.6750489 15.723999,11.5861817 C15.7269287,12.4991455 16.4663086,13.2385254 17.3792724,13.2414551 L30.6207276,13.2414551 C31.5336914,13.2385254 32.2730713,12.4991455 32.276001,11.5861817 Z" id="Path" fill="#41769E"></path>
                            <path d="M36.4138183,15.723999 C35.5008545,15.7269287 34.7614746,16.4663086 34.7585449,17.3792724 L34.7585449,30.6207276 C34.7614746,31.5336914 35.5008545,32.2730713 36.4138183,32.2756348 C37.3249511,32.269043 38.0621338,31.5318604 38.0687256,30.6207276 L38.0687256,17.3792724 C38.0661621,16.4663086 37.3267823,15.7269287 36.4138183,15.723999 Z" id="Path" fill="#41769E"></path>
                            <polygon id="Path" fill="#96C8EF" points="30.6207276 17.3792724 30.6207276 13.2414551 24 13.2414551 24 24 34.7585449 24 34.7585449 17.3792724"></polygon>
                            <polygon id="Path" fill="#5AAAE7" points="24 25.6552734 24 24 13.2414551 24 13.2414551 30.6207276 34.7585449 30.6207276 34.7585449 24 24 24"></polygon>
                            <polygon id="Path" fill="#78B9EB" points="24 13.2414551 17.3792724 13.2414551 17.3792724 17.3792724 13.2414551 17.3792724 13.2414551 24 24 24"></polygon>
                            <polygon id="Path" fill="#78B9EB" points="0 17.3792724 9.93090825 17.3792724 9.93090825 24 0 24"></polygon>
                            <polygon id="Path" fill="#5AAAE7" points="0 24 9.93090825 24 9.93090825 30.6207276 0 30.6207276"></polygon>
                            <polygon id="Path" fill="#96C8EF" points="38.0690917 17.3792724 48 17.3792724 48 24 38.0690917 24"></polygon>
                            <polygon id="Path" fill="#5AAAE7" points="38.0690917 24 48 24 48 30.6207276 38.0690917 30.6207276"></polygon>
                        </g>
                    </g>
                </g>
            </g>
        </g>
    </g>
</svg>