<?xml version="1.0" encoding="UTF-8"?>
<svg width="48px" height="43px" viewBox="0 0 48 43" version="1.1" xmlns="http://www.w3.org/2000/svg" xmlns:xlink="http://www.w3.org/1999/xlink">
    <!-- Generator: sketchtool 59.1 (101010) - https://sketch.com -->
    <title>AD73DF3B-AF8A-49A2-97D4-F7D9189E2B81</title>
    <desc>Created with sketchtool.</desc>
    <g id="Landing-Page" stroke="none" stroke-width="1" fill="none" fill-rule="evenodd">
        <g id="Home-Page" transform="translate(-124.000000, -1889.000000)" fill-rule="nonzero">
            <g id="Services" transform="translate(108.000000, 1595.000000)">
                <g id="Proud-Moments-Copy" transform="translate(0.000000, 258.000000)">
                    <g id="Icon/Plumbing/House" transform="translate(16.000000, 32.000000)">
                        <g id="029-faucet-2" transform="translate(0.000000, 4.000000)">
                            <path d="M3.30408606,10.7846977 C3.30408606,8.96014049 1.82455726,7.48097716 0,7.48097716 L0,30.6081176 C1.82455726,30.6081176 3.30408606,29.1289543 3.30408606,27.304397 L3.30408606,10.7846977 Z" id="Path" fill="#41769E"></path>
                            <path d="M25.605205,10.949902 L25.605205,5.00291261 L29.3551965,5.00291261 C30.2674751,6.58331838 32.2879383,7.12461829 33.8683441,6.21233966 C35.4483844,5.30006104 35.9900498,3.27959779 35.0774057,1.69919202 C34.1651271,0.119151823 32.1446638,-0.42251366 30.5642581,0.489764969 C30.0620662,0.779969035 29.645035,1.19700023 29.3551965,1.69919202 L18.5511274,1.69919202 C17.6388488,0.119151823 15.6183856,-0.42251366 14.0379798,0.489764969 C12.4579395,1.40240907 11.9162741,3.42287232 12.8289182,5.00291261 C13.7411969,6.58331838 15.7616601,7.12461829 17.3420659,6.21233966 C17.8442578,5.92250117 18.2612889,5.50546997 18.5511274,5.00291261 L22.3011189,5.00291261 L22.3011189,10.949902 C23.3913943,10.7298733 24.5149297,10.7298733 25.605205,10.949902 Z" id="Path" fill="#41769E"></path>
                            <path d="M39.6464742,38.8679673 C39.6464742,41.1486639 41.4955198,42.9977093 43.7765818,42.9977093 C46.0572784,42.9977093 47.9063239,41.1486639 47.9063239,38.8679673 C47.9063239,36.5872707 43.7765818,31.4341391 43.7765818,31.4341391 C43.7765818,31.4341391 39.6464742,36.5872707 39.6464742,38.8679673 Z" id="Path" fill="#2488FF"></path>
                            <path d="M39.6464742,14.0887838 L30.5525622,14.0887838 C27.8277876,10.4440552 22.6640567,9.69807743 19.0193281,12.4228519 C18.3873851,12.8954385 17.8263484,13.4564753 17.3537617,14.0887838 L3.30408606,14.0887838 L3.30408606,19.0445473 L47.214074,19.0445473 C45.900846,16.0354168 42.929727,14.0898803 39.6464742,14.0887838 Z" id="Path" fill="#78B9EB"></path>
                            <path d="M3.30408606,19.0445473 L3.30408606,24.000311 L17.3537617,24.000311 C20.0814603,27.6450395 25.2477497,28.3884589 28.8924782,25.6607604 C29.5222282,25.1892703 30.0814375,24.630061 30.5525622,24.000311 L36.3427536,24.000311 C37.2550323,24.000311 37.9944312,24.7400754 37.9944312,25.652354 L37.9944312,28.9560746 L47.9063239,28.9560746 L47.9063239,22.3486334 C47.9063239,21.2112091 47.6709443,20.0862117 47.214074,19.0445473 L3.30408606,19.0445473 Z" id="Path" fill="#5AAAE7"></path>
                        </g>
                    </g>
                </g>
            </g>
        </g>
    </g>
</svg>