<?xml version="1.0" encoding="UTF-8"?>
<svg width="20px" height="24px" viewBox="0 0 20 24" version="1.1" xmlns="http://www.w3.org/2000/svg" xmlns:xlink="http://www.w3.org/1999/xlink">
    <!-- Generator: sketchtool 59.1 (101010) - https://sketch.com -->
    <title>C7EFEE2D-A4B5-4886-9E4E-4B604F925080</title>
    <desc>Created with sketchtool.</desc>
    <g id="Landing-Page" stroke="none" stroke-width="1" fill="none" fill-rule="evenodd">
        <g id="Home-Page" transform="translate(-1310.000000, -108.000000)" fill="#4A5B6D">
            <g id="Top-Navigation" transform="translate(0.000000, 80.000000)">
                <g id="Icon/Bag">
                    <g transform="translate(1308.000000, 28.000000)">
                        <g id="bag" transform="translate(2.000000, 0.000000)">
                            <path d="M19.9868892,20.73 L18.5307487,6.6825 C18.4914859,6.2955 18.1227563,6 17.6806222,6 L15.1200001,6 L15.1200001,4.5 C15.1200001,3.294 14.5873907,2.163 13.6228897,1.3155 C12.6737524,0.48 11.3524714,0 9.99875587,0 C7.17524323,0 4.87751165,2.019 4.87751165,4.5 L4.87751165,6 L2.31688954,6 C1.87475546,6 1.50602588,6.2955 1.466763,6.6825 L0.0140367273,20.7285 C-0.0730244244,21.567 0.24790688,22.4025 0.893183652,23.0235 C1.53846042,23.6445 2.45687022,24 3.41454289,24 L16.5846759,24 C17.5406415,24 18.4590513,23.6445 19.1043281,23.025 C19.7513119,22.404 20.0705362,21.567 19.9868892,20.73 Z M13.4129187,6 L6.58459306,6 L6.58459306,4.5 C6.58459306,2.8455 8.11584508,1.5 9.99875587,1.5 C10.903509,1.5 11.784363,1.818 12.4159831,2.3745 C13.0595528,2.94 13.4129187,3.6945 13.4129187,4.5 L13.4129187,6 Z" id="Shape"></path>
                        </g>
                    </g>
                </g>
            </g>
        </g>
    </g>
</svg>