<?xml version="1.0" encoding="UTF-8"?>
<svg width="16px" height="16px" viewBox="0 0 16 16" version="1.1" xmlns="http://www.w3.org/2000/svg" xmlns:xlink="http://www.w3.org/1999/xlink">
    <!-- Generator: sketchtool 59.1 (101010) - https://sketch.com -->
    <title>AD07964D-5F8B-44D5-B4D2-D38D392B006B</title>
    <desc>Created with sketchtool.</desc>
    <g id="Landing-Page" stroke="none" stroke-width="1" fill="none" fill-rule="evenodd">
        <g id="Home-Page" transform="translate(-180.000000, -3758.000000)" fill="#1F262E" fill-rule="nonzero">
            <g id="Locations" transform="translate(156.000000, 3258.000000)">
                <g id="Djerelna" transform="translate(0.000000, 378.000000)">
                    <g id="Icon/Contact/Home-Copy-2" transform="translate(24.000000, 122.000000)">
                        <g id="phone" transform="translate(0.000000, 0.000000)">
                            <path d="M14.6779429,10.4748883 C13.7009039,10.4748883 12.7415688,10.3220779 11.8324779,10.0216519 C11.387013,9.86971429 10.8393974,10.0091013 10.5675221,10.2883325 L8.77315325,11.6428883 C6.6921974,10.5320727 5.41036883,9.25065974 4.31472208,7.18532987 L5.62942338,5.43771429 C5.97099221,5.0966026 6.09350649,4.59831688 5.94672208,4.13078442 C5.64500779,3.21691429 5.49174026,2.25803636 5.49174026,1.28058182 C5.49178182,0.574462338 4.91731948,0 4.21124156,0 L1.28054026,0 C0.574462338,0 0,0.574462338 0,1.28054026 C0,9.37404675 6.58443636,15.9584416 14.6779429,15.9584416 C15.3840208,15.9584416 15.9584831,15.3839792 15.9584831,14.6779013 L15.9584831,11.755387 C15.9584831,11.0493506 15.3839792,10.4748883 14.6779429,10.4748883 Z" id="Path"></path>
                        </g>
                    </g>
                </g>
            </g>
        </g>
    </g>
</svg>