<?xml version="1.0" encoding="UTF-8"?>
<svg width="16px" height="16px" viewBox="0 0 16 16" version="1.1" xmlns="http://www.w3.org/2000/svg" xmlns:xlink="http://www.w3.org/1999/xlink">
    <!-- Generator: sketchtool 59.1 (101010) - https://sketch.com -->
    <title>0742B6AE-88FE-4AC1-9C61-891E7641C7C6</title>
    <desc>Created with sketchtool.</desc>
    <g id="Landing-Page" stroke="none" stroke-width="1" fill="none" fill-rule="evenodd">
        <g id="Home-Page" transform="translate(-180.000000, -3732.000000)" fill="#1F262E" fill-rule="nonzero">
            <g id="Locations" transform="translate(156.000000, 3258.000000)">
                <g id="Djerelna" transform="translate(0.000000, 378.000000)">
                    <g id="Icon/Contact/Home" transform="translate(24.000000, 96.000000)">
                        <g id="home-run">
                            <path d="M15.5694444,6.94566275 C15.569079,6.94529728 15.5687135,6.94493177 15.5683479,6.94456627 L9.05433725,0.43079922 C8.77668129,0.153021442 8.40752923,0 8.01486353,0 C7.62219786,0 7.2530458,0.152899618 6.97526802,0.430677396 L0.464668632,6.94115496 C0.462475634,6.94334796 0.460282635,6.94566275 0.458089669,6.94785575 C-0.11208577,7.52132067 -0.111111111,8.45175439 0.460891821,9.02375732 C0.722222222,9.28520954 1.06737329,9.43664717 1.43640352,9.45248536 C1.45138888,9.45394738 1.46649609,9.45467836 1.48172513,9.45467836 L1.74134989,9.45467836 L1.74134989,14.2484162 C1.74134989,15.1970029 2.51315789,15.9688109 3.4619883,15.9688109 L6.0104776,15.9688109 C6.2687622,15.9688109 6.47831386,15.7593811 6.47831386,15.5009747 L6.47831386,11.7426901 C6.47831386,11.3098197 6.83040936,10.9577242 7.26327972,10.9577242 L8.76644738,10.9577242 C9.19931774,10.9577242 9.55141327,11.3098197 9.55141327,11.7426901 L9.55141327,15.5009747 C9.55141327,15.7593811 9.76084307,15.9688109 10.0192495,15.9688109 L12.5677388,15.9688109 C13.5165692,15.9688109 14.2883772,15.1970029 14.2883772,14.2484162 L14.2883772,9.45467836 L14.5291179,9.45467836 C14.9216618,9.45467836 15.2908138,9.30177874 15.5687135,9.02400097 C16.1413255,8.45102341 16.1415692,7.51900585 15.5694444,6.94566275 L15.5694444,6.94566275 Z" id="Path"></path>
                        </g>
                    </g>
                </g>
            </g>
        </g>
    </g>
</svg>