<?xml version="1.0" encoding="UTF-8"?>
<svg width="60px" height="40px" viewBox="0 0 60 40" version="1.1" xmlns="http://www.w3.org/2000/svg" xmlns:xlink="http://www.w3.org/1999/xlink">
    <!-- Generator: sketchtool 59.1 (101010) - https://sketch.com -->
    <title>D7ACC8D4-BF64-451F-AE63-3866DB341CE7</title>
    <desc>Created with sketchtool.</desc>
    <g id="Landing-Page" stroke="none" stroke-width="1" fill="none" fill-rule="evenodd">
        <g id="Home-Page" transform="translate(-1124.000000, -4048.000000)" fill="#CDD2D8" fill-rule="nonzero">
            <g id="Footer" transform="translate(0.000000, 3992.000000)">
                <g id="mastercard">
                    <g transform="translate(1124.000000, 56.000000)">
                        <path d="M15.8431579,17.6968421 C14.7294737,17.6968421 13.8757895,18.0547368 13.8757895,18.0547368 L13.64,19.4547368 C13.64,19.4547368 14.3442105,19.1684211 15.4105263,19.1684211 C16.0157895,19.1684211 16.4578947,19.2357895 16.4578947,19.7273684 C16.4578947,20.0263158 16.4042105,20.1368421 16.4042105,20.1368421 C16.4042105,20.1368421 15.9273684,20.0978947 15.7063158,20.0978947 C14.3010526,20.0978947 12.8252632,20.6957895 12.8252632,22.5052632 C12.8252632,23.9305263 13.7926316,24.2557895 14.3936842,24.2557895 C15.54,24.2557895 16.0347368,23.5126316 16.06,23.5105263 L16.0063158,24.1315789 L17.4368421,24.1315789 L18.0747368,19.6578947 C18.0736842,17.7578947 16.4178947,17.6968421 15.8431579,17.6968421 Z M15.0410526,22.8947368 C14.5368421,22.8947368 14.4052632,22.5105263 14.4052632,22.2810526 C14.4052632,21.8368421 14.6463158,21.3021053 15.8368421,21.3021053 C16.1147368,21.3031579 16.1442105,21.3315789 16.1905263,21.34 C16.2221053,21.6136842 16.02,22.8947368 15.0410526,22.8947368 Z" id="Shape"></path>
                        <path d="M21.0094737,19.1968421 C21.2378947,19.1968421 22.1189474,19.2694737 22.1189474,19.2694737 L22.3242105,17.8357895 C22.3242105,17.8357895 21.7536842,17.7084211 20.8252632,17.7084211 C19.6231579,17.7084211 18.4042105,18.1884211 18.4042105,19.8294737 C18.4042105,21.6905263 20.4378947,21.5010526 20.4378947,22.2863158 C20.4378947,22.8084211 19.8694737,22.8515789 19.4315789,22.8515789 C18.6726316,22.8515789 17.9905263,22.5926316 17.9884211,22.6031579 L17.7715789,24.0252632 C17.8105263,24.0357895 18.2315789,24.2231579 19.5947368,24.2231579 C19.96,24.2231579 22.0515789,24.3178947 22.0515789,22.1589474 C22.0515789,20.14 20.1157895,20.5389474 20.1157895,19.7273684 C20.1157895,19.3231579 20.4305263,19.1968421 21.0094737,19.1968421 Z" id="Path"></path>
                        <path d="M24.4273684,19.38 L25.2873684,19.38 L25.4947368,17.8515789 L24.6842105,17.8515789 L24.8494737,16.9042105 L23.2252632,16.9042105 C23.1894737,16.9389474 22.2663158,22.2473684 22.2663158,22.8915789 C22.2663158,23.8505263 22.8042105,24.2757895 23.5610526,24.2684211 C24.1536842,24.2642105 24.6157895,24.1 24.7789474,24.0547368 L24.9821053,22.6736842 C24.8705263,22.6736842 24.7073684,22.7221053 24.5631579,22.7221053 C23.9978947,22.7221053 23.9357895,22.42 23.9715789,22.1978947 L24.4273684,19.38 Z" id="Path"></path>
                        <path d="M31.2347368,10.5126316 L28.3357895,10.5126316 C27.9463158,11.0389474 27.58,11.5989474 27.2484211,12.1463158 L32.42,12.1463158 C32.0610526,11.5757895 31.6642105,11.0305263 31.2347368,10.5126316 Z" id="Path"></path>
                        <path d="M53.8536842,28.8894737 C53.8221053,28.8421053 53.7957895,28.8063158 53.7747368,28.7842105 C53.7631579,28.7736842 53.7484211,28.7621053 53.7294737,28.7568421 C53.7747368,28.7536842 53.8126316,28.7368421 53.84,28.7084211 C53.8663158,28.68 53.8810526,28.6463158 53.8810526,28.6073684 C53.8810526,28.58 53.8726316,28.5536842 53.8568421,28.5294737 C53.8410526,28.5052632 53.8178947,28.4873684 53.7894737,28.4778947 C53.7631579,28.4673684 53.7178947,28.4621053 53.6557895,28.4621053 L53.4726316,28.4621053 L53.4726316,28.9936842 L53.5589474,28.9936842 L53.5589474,28.7684211 L53.6084211,28.7684211 C53.6378947,28.7684211 53.6621053,28.7747368 53.6757895,28.7873684 C53.6978947,28.8052632 53.7294737,28.8463158 53.7663158,28.9105263 L53.8126316,28.9947368 L53.9189474,28.9947368 L53.8536842,28.8894737 Z M53.6621053,28.6978947 L53.5568421,28.6978947 L53.5568421,28.5378947 L53.6557895,28.5378947 C53.6968421,28.5378947 53.7242105,28.5410526 53.74,28.5473684 C53.7568421,28.5536842 53.7673684,28.5631579 53.7768421,28.5747368 C53.7852632,28.5873684 53.7894737,28.6010526 53.7894737,28.6157895 C53.7894737,28.64 53.7810526,28.6610526 53.7631579,28.6757895 C53.7452632,28.6894737 53.7105263,28.6978947 53.6621053,28.6978947 Z" id="Shape"></path>
                        <path d="M33.2989474,13.7494737 L26.3442105,13.7494737 C25.9,14.5905263 25.6052632,15.2263158 25.5221053,15.3842105 L33.9578947,15.3842105 C33.7673684,14.8221053 33.5484211,14.2778947 33.2989474,13.7494737 Z" id="Path"></path>
                        <polygon id="Path" points="10.8347368 16.4031579 9.23368421 21.1505263 9.15052632 16.4031579 6.78 16.4031579 5.48105263 24.1389474 7.04842105 24.1389474 8.03684211 18.3073684 8.18210526 24.1389474 9.30105263 24.1389474 11.3884211 18.3073684 10.4631579 24.1389474 12.1263158 24.1389474 13.4073684 16.4031579"></polygon>
                        <path d="M42.1778947,17.6968421 C41.0621053,17.6968421 40.2094737,18.0547368 40.2094737,18.0547368 L39.9726316,19.4547368 C39.9726316,19.4547368 40.6778947,19.1684211 41.7431579,19.1684211 C42.3484211,19.1684211 42.7915789,19.2357895 42.7915789,19.7273684 C42.7915789,20.0263158 42.7357895,20.1368421 42.7357895,20.1368421 C42.7357895,20.1368421 42.26,20.0978947 42.0368421,20.0978947 C40.6326316,20.0978947 39.1578947,20.6957895 39.1578947,22.5052632 C39.1578947,23.9305263 40.1263158,24.2557895 40.7263158,24.2557895 C41.8715789,24.2557895 42.3663158,23.5126316 42.3926316,23.5105263 L42.3389474,24.1315789 L43.7684211,24.1315789 L44.4063203,19.6578947 C44.4094737,17.7578947 42.7526316,17.6968421 42.1778947,17.6968421 Z M41.3778947,22.8947368 C40.8726316,22.8947368 40.7421053,22.5105263 40.7421053,22.2810526 C40.7421053,21.8368421 40.9831579,21.3021053 42.1736842,21.3021053 C42.4505263,21.3031579 42.48,21.3315789 42.5273684,21.34 C42.5578947,21.6136842 42.3547368,22.8947368 41.3778947,22.8947368 Z" id="Shape"></path>
                        <path d="M53.9052632,23.4263158 C53.8621053,23.3463158 53.7989474,23.2852632 53.72,23.2431579 C53.6421053,23.2 53.5621053,23.1789474 53.4778947,23.1789474 C53.3968421,23.18 53.3157895,23.2010526 53.2357895,23.2431579 C53.1568421,23.2852632 53.0957895,23.3463158 53.0515789,23.4263158 C53.0073684,23.5052632 52.9852632,23.5873684 52.9852632,23.6726316 C52.9852632,23.7578947 53.0073684,23.8389474 53.0515789,23.9168421 C53.0947368,23.9947368 53.1557895,24.0568421 53.2336842,24.1010526 C53.3126316,24.1442105 53.3936842,24.1663158 53.4778947,24.1663158 C53.5642105,24.1663158 53.6463158,24.1442105 53.7231579,24.1010526 C53.8010526,24.0568421 53.8621053,23.9947368 53.9052632,23.9168421 C53.9505263,23.8389474 53.9705263,23.7578947 53.9705263,23.6726316 C53.9705263,23.5852632 53.9494737,23.5031579 53.9052632,23.4263158 Z M53.8368421,23.8757895 C53.8010526,23.9410526 53.7505263,23.9905263 53.6842105,24.0294737 C53.6189474,24.0652632 53.5515789,24.0842105 53.4810526,24.0842105 C53.4094737,24.0842105 53.3410526,24.0652632 53.2768421,24.0294737 C53.2105263,23.9926316 53.1610526,23.9421053 53.1231579,23.8757895 C53.0852632,23.8094737 53.0684211,23.7421053 53.0684211,23.6715789 C53.0684211,23.6010526 53.0863158,23.5326316 53.1252632,23.4663158 C53.1621053,23.4010526 53.2115789,23.3505263 53.2789474,23.3136842 C53.3463158,23.2768421 53.4126316,23.2610526 53.4810526,23.2610526 C53.5494737,23.2610526 53.6168421,23.2778947 53.6810526,23.3136842 C53.7484211,23.3505263 53.7978947,23.4 53.8347368,23.4663158 C53.8715789,23.5326316 53.8915789,23.6010526 53.8915789,23.6715789 C53.8915789,23.7421053 53.8736842,23.8105263 53.8368421,23.8757895 Z" id="Shape"></path>
                        <path d="M53.6452632,23.84 C53.6147368,23.7905263 53.5873684,23.7557895 53.5673684,23.7347368 C53.5547368,23.7231579 53.5410526,23.7136842 53.5221053,23.7073684 C53.5673684,23.7042105 53.6042105,23.6873684 53.6315789,23.6589474 C53.6578947,23.6315789 53.6736842,23.5957895 53.6736842,23.5578947 C53.6736842,23.5315789 53.6652632,23.5042105 53.6484211,23.48 C53.6315789,23.4568421 53.6094737,23.4389474 53.5831579,23.4284211 C53.5568421,23.4178947 53.5105263,23.4126316 53.4484211,23.4126316 L53.2631579,23.4126316 L53.2631579,23.9431579 L53.3494737,23.9431579 L53.3494737,23.7178947 L53.3989474,23.7178947 C53.4294737,23.7178947 53.4536842,23.7242105 53.4684211,23.7357895 C53.4905263,23.7547368 53.52,23.7947368 53.5589474,23.8610526 L53.6042105,23.9442105 L53.7105263,23.9442105 L53.6452632,23.84 Z M53.4557895,23.6452632 L53.3515789,23.6452632 L53.3515789,23.4842105 L53.4484211,23.4842105 C53.4905263,23.4842105 53.5178947,23.4873684 53.5347368,23.4926316 C53.5484211,23.5 53.5610526,23.5073684 53.5694737,23.5210526 C53.5789474,23.5347368 53.5831579,23.5463158 53.5831579,23.5642105 C53.5831579,23.5873684 53.5736842,23.6073684 53.5578947,23.6221053 C53.5378947,23.64 53.5052632,23.6452632 53.4557895,23.6452632 Z" id="Shape"></path>
                        <path d="M47.6978947,17.7736842 C46.9705263,17.7736842 46.4305263,18.7663158 46.4305263,18.7663158 L46.5757895,17.8536842 L45.0621053,17.8536842 L44.0484211,24.1505263 L45.7157895,24.1505263 C46.1905263,21.46 46.2768421,19.2778947 47.4042105,19.6768421 C47.6031579,18.6368421 47.7947368,18.2336842 48.0105263,17.7947368 C48.0105263,17.7957895 47.9094737,17.7736842 47.6978947,17.7736842 Z" id="Path"></path>
                        <path d="M51.8873684,16.4115789 L51.5368421,18.5852632 C51.5368421,18.5852632 50.9263158,17.74 49.9684211,17.74 C48.4789474,17.7410526 47.2389474,19.5357895 47.2389474,21.5968421 C47.2389474,22.9284211 47.9010526,24.2326316 49.2526316,24.2326316 C50.2263158,24.2326316 50.7652632,23.5536842 50.7652632,23.5536842 L50.6947368,24.1336842 L52.2747368,24.1336842 L53.5168421,16.4084211 L51.8873684,16.4115789 Z M49.8273684,22.6536842 C49.2421053,22.6536842 48.9684211,22.1631579 48.9684211,21.3926316 C48.9684211,20.1326316 49.5336842,19.3021053 50.2484211,19.3021053 C50.8315789,19.3031579 51.1315789,19.7042105 51.1315789,20.6494737 C51.1315789,21.5073684 50.7073684,22.6536842 49.8273684,22.6536842 Z" id="Shape"></path>
                        <path d="M57.9221053,0.988421053 L1.53052632,0.988421053 C0.684210526,0.988421053 0,1.67368421 0,2.51894737 L0,37.9873684 C0,38.8326316 0.684210526,39.5178947 1.53052632,39.5178947 L57.9221053,39.5178947 C58.7684211,39.5178947 59.4526316,38.8326316 59.4526316,37.9873684 L59.4526316,2.51894737 C59.4526316,1.67368421 58.7684211,0.988421053 57.9221053,0.988421053 Z M54.1147368,28.9663158 C54.0705263,29.0463158 54.0105263,29.1073684 53.9326316,29.1505263 C53.8547368,29.1936842 53.7726316,29.2157895 53.6884211,29.2157895 C53.6021053,29.2157895 53.52,29.1936842 53.4421053,29.1505263 C53.3652632,29.1073684 53.3042105,29.0463158 53.2589474,28.9663158 C53.2157895,28.8894737 53.1936842,28.8073684 53.1936842,28.7221053 C53.1936842,28.6368421 53.2157895,28.5557895 53.26,28.4757895 C53.3031579,28.3957895 53.3663158,28.3357895 53.4442105,28.2926316 C53.5231579,28.2515789 53.6031579,28.2294737 53.6873684,28.2294737 C53.7705263,28.2294737 53.8505263,28.2515789 53.9284211,28.2926316 C54.0073684,28.3357895 54.0694737,28.3957895 54.1126316,28.4757895 C54.1568421,28.5557895 54.1778947,28.6378947 54.1778947,28.7221053 C54.1778947,28.8063158 54.1589474,28.8915789 54.1147368,28.9663158 Z M55.2178947,20.2536842 C55.22,28.68 48.3926316,35.5136842 39.9652632,35.51579 C36.0242105,35.5168421 32.4305263,34.0231579 29.7231579,31.5694737 C27.0157895,34.0189474 23.4294737,35.5115789 19.4947368,35.5115789 C11.0726316,35.5115789 4.23684211,28.6768421 4.23684211,20.2536842 C4.23684211,11.8642105 11.0189474,5.04947368 19.3968421,4.99473684 C19.4294737,4.99473684 19.4621053,4.99473684 19.4947368,4.99473684 C23.4294737,4.99473684 27.0168421,6.48736842 29.7242105,8.93684211 C32.4305263,6.48631579 36.02,4.99263158 39.9578947,4.99157785 C48.3852632,4.98842105 55.2178947,11.8189474 55.22,20.2463158 C55.2178947,20.2484211 55.2178947,20.2494737 55.2178947,20.2536842 Z" id="Shape"></path>
                        <path d="M28.1610526,29.9010526 C28.6442105,30.4926316 29.1557895,31.0568421 29.7210526,31.5684211 C29.7336842,31.5568421 29.7473684,31.5463158 29.76,31.5357895 C29.76,31.5357895 29.7589474,31.5357895 29.7589474,31.5347368 L29.7621053,31.5347368 C30.3178947,31.0284211 30.8368421,30.4831579 31.3115789,29.9010526 L28.1610526,29.9010526 L28.1610526,29.9010526 Z" id="Path"></path>
                        <path d="M30.2389474,21.5263158 C30.2389474,21.5263158 30.4526316,20.4736842 30.4526316,20.0452632 C30.4526316,18.9747368 29.92,17.6694737 28.1368421,17.6694737 C26.5031579,17.6705263 25.2936842,19.4305263 25.2936842,21.42 C25.2936842,23.7157895 26.8084211,24.2610526 28.1,24.2610526 C29.2915789,24.2610526 29.8157895,23.9936842 29.8157895,23.9936842 L30.1021053,22.4273684 C30.1021053,22.4273684 29.1957895,22.8273684 28.3768421,22.8273684 C26.6326316,22.8273684 26.9378947,21.5263158 26.9378947,21.5263158 L30.2389474,21.5263158 L30.2389474,21.5263158 Z M28.1421053,19.1273684 C29.0589474,19.1273684 28.8894737,20.1578947 28.8894737,20.24 L27.0863158,20.24 C27.0863158,20.1336842 27.2568421,19.1273684 28.1421053,19.1273684 Z" id="Shape"></path>
                        <path d="M37.8578947,17.8852632 C38.6842105,17.8852632 39.3484211,18.3494737 39.3484211,18.3494737 L39.6136842,16.6284211 C39.6136842,16.6284211 38.6305263,16.2305263 37.7842105,16.2305263 C35.9094737,16.2305263 34.0852632,17.8578947 34.0852632,20.9136842 C34.0852632,22.94 35.0694737,24.2778947 37.0084211,24.2778947 C37.5557895,24.2778947 38.4294737,24.0557895 38.4294737,24.0557895 L38.72,22.2831579 C38.72,22.2831579 37.9242105,22.6821053 37.3768421,22.6821053 C36.2231579,22.6810526 35.7610526,21.8010526 35.7610526,20.8578947 C35.7610526,18.9389474 36.7526316,17.8852632 37.8578947,17.8852632 Z" id="Path"></path>
                        <path d="M26.1242105,26.6957895 C26.3884211,27.2631579 26.6957895,27.8031579 27.0252632,28.3294737 L32.4389474,28.3294737 C32.7673684,27.8052632 33.0631579,27.26 33.3273684,26.6957895 L26.1242105,26.6957895 Z" id="Path"></path>
                        <path d="M34.0557895,17.7757895 C33.3284211,17.7757895 32.7894737,18.7684211 32.7894737,18.7684211 L32.9357895,17.8557895 L31.4231579,17.8557895 L30.4094737,24.1526316 L32.0768421,24.1526316 C32.5494737,21.4631579 32.6378947,19.28 33.7652632,19.6789474 C33.9631579,18.6378947 34.1536842,18.2347368 34.3694737,17.7947368 C34.3694737,17.7947368 34.2684211,17.7736842 34.0557895,17.7757895 Z" id="Path"></path>
                    </g>
                </g>
            </g>
        </g>
    </g>
</svg>