<?xml version="1.0" encoding="UTF-8"?>
<svg width="22px" height="22px" viewBox="0 0 22 22" version="1.1" xmlns="http://www.w3.org/2000/svg" xmlns:xlink="http://www.w3.org/1999/xlink">
    <!-- Generator: sketchtool 59.1 (101010) - https://sketch.com -->
    <title>12C2DF50-DADE-4A2A-B906-75F0EA97DE28</title>
    <desc>Created with sketchtool.</desc>
    <g id="Landing-Page" stroke="none" stroke-width="1" fill="none" fill-rule="evenodd">
        <g id="Home-Page" transform="translate(-1237.000000, -109.000000)" fill="#4A5B6D">
            <g id="Top-Navigation" transform="translate(0.000000, 80.000000)">
                <g id="Icon/Bag-Copy">
                    <g transform="translate(1236.000000, 28.000000)">
                        <path d="M22.2297856,18.3123735 L18.6068616,14.6964981 C19.265575,13.3816342 19.7047173,11.8476265 19.7047173,10.3136187 C19.7047173,5.16373541 15.5328655,1 10.3729435,1 C5.21302144,1 1.04116959,5.16373541 1.04116959,10.3136187 C1.04116959,15.4635019 5.21302144,19.6272374 10.3729435,19.6272374 C11.9099415,19.6272374 13.4469396,19.1889494 14.7643665,18.5315175 L18.3872904,22.147393 C19.4851462,23.2431128 21.1319298,23.2431128 22.2297856,22.147393 C23.2178558,21.0516732 23.2178558,19.4080934 22.2297856,18.3123735 Z M10.3729435,17.4357977 C6.42066277,17.4357977 3.23688109,14.2582101 3.23688109,10.3136187 C3.23688109,6.36902724 6.42066277,3.19143969 10.3729435,3.19143969 C14.3252242,3.19143969 17.5090058,6.36902724 17.5090058,10.3136187 C17.5090058,14.2582101 14.3252242,17.4357977 10.3729435,17.4357977 Z" id="Shape"></path>
                    </g>
                </g>
            </g>
        </g>
    </g>
</svg>