<?xml version="1.0" encoding="UTF-8"?>
<svg width="60px" height="40px" viewBox="0 0 60 40" version="1.1" xmlns="http://www.w3.org/2000/svg" xmlns:xlink="http://www.w3.org/1999/xlink">
    <!-- Generator: sketchtool 59.1 (101010) - https://sketch.com -->
    <title>C6D3787F-9FC6-4C07-BCDA-C78A6FDA710B</title>
    <desc>Created with sketchtool.</desc>
    <g id="Landing-Page" stroke="none" stroke-width="1" fill="none" fill-rule="evenodd">
        <g id="Home-Page" transform="translate(-1044.000000, -4048.000000)" fill="#CDD2D8" fill-rule="nonzero">
            <g id="Footer" transform="translate(0.000000, 3992.000000)">
                <g id="visa">
                    <g transform="translate(1044.000000, 56.000000)">
                        <path d="M57.9221053,0.988421053 L1.53052632,0.988421053 C0.684210526,0.988421053 0,1.67368421 0,2.51894737 L0,37.9873684 C0,38.8326316 0.684210526,39.5178947 1.53052632,39.5178947 L57.9221053,39.5178947 C58.7684211,39.5178947 59.4526316,38.8326316 59.4526316,37.9873684 L59.4526316,2.51894737 C59.4526316,1.67368421 58.7684211,0.988421053 57.9221053,0.988421053 Z M4.60315789,12.6315789 L10.9484211,12.6315789 C11.8042105,12.6642105 12.4936842,12.9368421 12.7315789,13.8515789 L14.1115789,20.4884211 C12.7557895,17.0168421 9.48842105,14.1284211 4.55052632,12.9326316 L4.60315789,12.6315789 Z M12.2810526,27.7684211 L8.61578947,15.2463158 C11.2505263,16.9326316 13.4947368,19.6084211 14.2852632,21.4705263 L14.7126316,23.0168421 L18.7210526,12.7757895 L23.0578947,12.7757895 L16.6126316,27.7652632 L12.2810526,27.7684211 Z M26.2452632,27.7789474 L22.1526316,27.7789474 L24.7115789,12.76 L28.8063158,12.76 L26.2452632,27.7789474 Z M33.3673684,28.0042105 C31.5326316,27.9852632 29.7652632,27.6221053 28.8073684,27.2021053 L29.3831579,23.8410526 L29.9105263,24.08 C31.2547368,24.6410526 32.1252632,24.8684211 33.7642105,24.8684211 C34.94,24.8684211 36.2,24.4084211 36.2115789,23.4021053 C36.2189474,22.7442105 35.6842105,22.2747368 34.0905263,21.5378947 C32.5368421,20.82 30.48,19.6157895 30.5052632,17.4589474 C30.5273684,14.54 33.3778947,12.5031579 37.4231579,12.5031579 C39.0084211,12.5031579 40.2789474,12.8294737 41.0894737,13.1336842 L40.5368421,16.3894737 L40.1673684,16.2157895 C39.4136842,15.9126316 38.4442105,15.62 37.1042105,15.6410526 C35.5021053,15.6410526 34.7589474,16.3084211 34.7589474,16.9326316 C34.7505263,17.6357895 35.6263158,18.0989474 37.0578947,18.7957895 C39.4189474,19.8673684 40.5105263,21.1673684 40.4957895,22.8757895 C40.4642105,25.9915789 37.6715789,28.0042105 33.3673684,28.0042105 Z M51.1042105,27.7852632 C51.1042105,27.7852632 50.7305263,26.0589474 50.6063158,25.5347368 C50.0105263,25.5347368 45.8336842,25.5284211 45.3642105,25.5284211 C45.2052632,25.9336842 44.5042105,27.7852632 44.5042105,27.7852632 L40.2063158,27.7852632 L46.2831579,14.0221053 C46.7147368,13.0442105 47.4463158,12.7757895 48.4273684,12.7757895 L51.5894737,12.7757895 L54.9021053,27.7842105 L51.1042105,27.7852632 Z" id="Shape"></path>
                        <path d="M48.9915789,18.1210526 L48.7157895,16.8263158 C48.5073684,17.3915789 48.1484211,18.3 48.1715789,18.26 C48.1715789,18.26 46.8778947,21.5936842 46.5410526,22.4578947 L49.94,22.4578947 C49.7757895,21.7052632 48.9915789,18.1210526 48.9915789,18.1210526 Z" id="Path"></path>
                    </g>
                </g>
            </g>
        </g>
    </g>
</svg>